# Blender v2.80 (sub 75) OBJ File: 'mask.blend'
# www.blender.org
mtllib mask.mtl
o mask_Plane
v 0.644745 0.606597 -0.016786
v 0.636466 1.297986 -0.020551
v 0.401666 0.510937 0.188132
v 0.397119 1.288871 0.188131
v 0.640362 0.952291 0.024894
v 0.633270 1.210930 -0.007191
v 0.397692 1.190918 0.203320
v 0.640028 0.662616 -0.008194
v 0.799858 0.856666 -0.368876
v 0.745822 1.266707 -0.261027
v 0.738209 1.205307 -0.242262
v 0.778356 0.892621 -0.321457
v 0.813726 1.115990 -0.410447
v 0.786583 1.094714 -0.348541
v 0.723946 0.767192 -0.197294
v 0.736612 0.720690 -0.224276
v 0.786598 1.206001 -0.350743
v 0.769220 1.164663 -0.310407
v 0.816648 0.984497 -0.411336
v 0.792326 0.991836 -0.356674
v 0.576579 0.579771 0.040679
v 0.569347 1.295430 0.037970
v 0.572790 0.935365 0.087301
v 0.567207 1.205318 0.051843
v 0.401298 0.573969 0.197905
v 0.573081 0.637757 0.049602
v 0.399455 0.889201 0.246785
v -0.570972 0.606597 -0.016786
v -0.562693 1.297986 -0.020551
v 0.036886 0.479749 0.293455
v 0.036886 1.279755 0.293455
v -0.327893 0.510937 0.188132
v -0.323346 1.288871 0.188131
v -0.566589 0.952291 0.024894
v -0.559497 1.210930 -0.007191
v 0.036886 1.179023 0.308644
v -0.323919 1.190918 0.203320
v -0.566255 0.662616 -0.008194
v 0.036886 0.544569 0.303229
v -0.726085 0.856666 -0.368876
v -0.672049 1.266707 -0.261027
v -0.664436 1.205307 -0.242262
v -0.704583 0.892621 -0.321457
v -0.739953 1.115990 -0.410447
v -0.712810 1.094714 -0.348541
v -0.650173 0.767192 -0.197294
v -0.662839 0.720690 -0.224276
v -0.712825 1.206001 -0.350743
v -0.695447 1.164663 -0.310407
v -0.742875 0.984497 -0.411336
v -0.718553 0.991836 -0.356674
v -0.502806 0.579771 0.040679
v -0.495574 1.295430 0.037970
v -0.498813 0.935365 0.087362
v -0.493434 1.205318 0.051843
v -0.327525 0.573969 0.197905
v -0.499308 0.637757 0.049602
v 0.036886 0.868745 0.352108
v -0.325682 0.889201 0.246785
v 0.629008 0.607273 -0.029110
v 0.620246 1.296830 -0.032194
v 0.392198 0.513403 0.170689
v 0.387395 1.286267 0.170850
v 0.626926 0.951869 0.010086
v 0.618244 1.209343 -0.020293
v 0.388177 1.188257 0.185931
v 0.624527 0.663541 -0.020798
v 0.781587 0.856428 -0.377006
v 0.727570 1.266362 -0.269195
v 0.719956 1.204960 -0.250429
v 0.760085 0.892383 -0.329587
v 0.795437 1.115729 -0.418536
v 0.768294 1.094454 -0.356630
v 0.705703 0.766978 -0.205488
v 0.718369 0.720475 -0.232470
v 0.768315 1.205803 -0.358847
v 0.750939 1.164461 -0.318515
v 0.798365 0.984170 -0.419436
v 0.774043 0.991510 -0.364774
v 0.563286 0.581394 0.025825
v 0.556252 1.293387 0.022992
v 0.559309 0.935215 0.072528
v 0.554073 1.203144 0.036918
v 0.391495 0.576435 0.180648
v 0.559667 0.639498 0.034871
v 0.389800 0.889347 0.229271
v -0.555235 0.607273 -0.029110
v -0.546473 1.296830 -0.032194
v 0.036886 0.482754 0.273683
v 0.036886 1.276717 0.273688
v -0.318425 0.513403 0.170689
v -0.313622 1.286267 0.170850
v -0.553153 0.951869 0.010086
v -0.544471 1.209343 -0.020293
v 0.036886 1.175985 0.288876
v -0.314404 1.188257 0.185931
v -0.550754 0.663541 -0.020798
v 0.036886 0.547575 0.283457
v -0.707814 0.856428 -0.377006
v -0.653797 1.266362 -0.269195
v -0.646183 1.204960 -0.250429
v -0.686312 0.892383 -0.329587
v -0.721664 1.115729 -0.418536
v -0.694521 1.094454 -0.356630
v -0.631930 0.766978 -0.205488
v -0.644596 0.720475 -0.232470
v -0.694542 1.205803 -0.358847
v -0.677166 1.164461 -0.318515
v -0.724592 0.984170 -0.419436
v -0.700270 0.991510 -0.364774
v -0.489513 0.581394 0.025825
v -0.482479 1.293387 0.022992
v -0.485536 0.935215 0.072528
v -0.480300 1.203144 0.036918
v -0.317722 0.576435 0.180648
v -0.485894 0.639498 0.034871
v 0.036886 0.869023 0.332111
v -0.316027 0.889347 0.229271
vt 0.566960 0.720550
vt 0.626459 0.724102
vt 0.634769 0.782856
vt 0.574542 0.781386
vt 0.160426 0.711613
vt 0.414286 0.711433
vt 0.420002 0.777613
vt 0.165478 0.780626
vt 0.567446 0.341841
vt 0.627334 0.357509
vt 0.611980 0.551561
vt 0.551940 0.542139
vt 0.572530 0.302470
vt 0.633111 0.319469
vt 0.162622 0.233711
vt 0.417083 0.258852
vt 0.413778 0.301636
vt 0.160039 0.277634
vt 0.768497 0.426003
vt 0.788330 0.394365
vt 0.895260 0.485862
vt 0.860152 0.510226
vt 0.800368 0.721407
vt 0.813922 0.762981
vt 0.880602 0.721926
vt 0.850915 0.693970
vt 0.879215 0.646711
vt 0.924897 0.661070
vt 0.926194 0.572209
vt 0.885776 0.577200
vt 0.552171 0.539153
vt 0.398400 0.510859
vt 0.414286 0.711433
vt 0.566960 0.720550
vt 0.398400 0.510859
vt 0.148117 0.497814
vt 0.413778 0.301636
vt 0.567446 0.341841
vt 0.574542 0.781386
vt 0.634769 0.782856
vt 0.626459 0.724102
vt 0.420002 0.777613
vt 0.551940 0.542139
vt 0.611980 0.551561
vt 0.627334 0.357509
vt 0.572530 0.302470
vt 0.633111 0.319469
vt 0.417083 0.258852
vt 0.768497 0.426003
vt 0.860152 0.510226
vt 0.895260 0.485862
vt 0.788330 0.394365
vt 0.813922 0.762981
vt 0.800368 0.721407
vt 0.880602 0.721926
vt 0.924897 0.661070
vt 0.879215 0.646711
vt 0.850915 0.693970
vt 0.926194 0.572209
vt 0.885776 0.577200
vt 0.552171 0.539153
vt 0.398400 0.510859
vt 0.414286 0.711433
vt 0.566960 0.720550
vt 0.413778 0.301636
vt 0.567446 0.341841
vt 0.574542 0.781386
vt 0.634769 0.782856
vt 0.626459 0.724102
vt 0.160426 0.711613
vt 0.165478 0.780626
vt 0.420002 0.777613
vt 0.551940 0.542139
vt 0.611980 0.551561
vt 0.627334 0.357509
vt 0.572530 0.302470
vt 0.633111 0.319469
vt 0.162622 0.233711
vt 0.160039 0.277634
vt 0.417083 0.258852
vt 0.768497 0.426003
vt 0.860152 0.510226
vt 0.895260 0.485862
vt 0.788330 0.394365
vt 0.813922 0.762981
vt 0.800368 0.721407
vt 0.880602 0.721926
vt 0.924897 0.661070
vt 0.879215 0.646711
vt 0.850915 0.693970
vt 0.926194 0.572209
vt 0.885776 0.577200
vt 0.552171 0.539153
vt 0.566960 0.720550
vt 0.414286 0.711433
vt 0.398400 0.510859
vt 0.148117 0.497814
vt 0.567446 0.341841
vt 0.413778 0.301636
vt 0.626459 0.724102
vt 0.634769 0.782856
vt 0.574542 0.781386
vt 0.420002 0.777613
vt 0.627334 0.357509
vt 0.611980 0.551561
vt 0.551940 0.542139
vt 0.572530 0.302470
vt 0.633111 0.319469
vt 0.417083 0.258852
vt 0.768497 0.426003
vt 0.788330 0.394365
vt 0.895260 0.485862
vt 0.860152 0.510226
vt 0.800368 0.721407
vt 0.813922 0.762981
vt 0.880602 0.721926
vt 0.850915 0.693970
vt 0.879215 0.646711
vt 0.924897 0.661070
vt 0.926194 0.572209
vt 0.885776 0.577200
vt 0.552171 0.539153
vn 0.4538 0.1214 0.8828
vn 0.9048 -0.2002 0.3757
vn 0.5831 0.7187 0.3787
vn 0.3994 0.7741 0.4911
vn 0.0000 0.1464 0.9892
vn 0.4751 0.1292 0.8704
vn 0.3126 0.7474 0.5862
vn 0.0000 0.7392 0.6734
vn 0.4716 -0.1050 0.8755
vn 0.8636 0.1962 0.4644
vn 0.9971 0.0210 0.0726
vn 0.2929 0.0055 0.9561
vn 0.5871 -0.7305 0.3489
vn 0.7137 -0.6607 0.2325
vn 0.0000 -0.7646 0.6444
vn 0.4201 -0.7537 0.5054
vn 0.4911 -0.1232 0.8623
vn 0.0000 -0.1503 0.9886
vn 0.5057 0.5643 0.6525
vn 0.7985 -0.5961 -0.0843
vn 0.8562 -0.4197 -0.3013
vn 0.4751 0.3711 0.7978
vn 0.6441 -0.6057 0.4671
vn 0.6929 0.7199 0.0402
vn 0.8092 0.5541 -0.1954
vn 0.5326 -0.4504 0.7166
vn 0.4462 -0.1931 0.8739
vn 0.8796 0.2507 -0.4042
vn 0.9107 -0.1101 -0.3981
vn 0.4361 0.0995 0.8944
vn -0.2921 0.0055 0.9563
vn -0.4808 -0.0038 0.8768
vn -0.4751 0.1292 0.8704
vn -0.4535 0.1214 0.8829
vn 0.4808 -0.0038 0.8768
vn 0.0000 -0.0092 0.9999
vn -0.4911 -0.1232 0.8623
vn -0.4713 -0.1050 0.8757
vn -0.3994 0.7741 0.4911
vn -0.5831 0.7187 0.3787
vn -0.9048 -0.2003 0.3758
vn -0.3126 0.7474 0.5862
vn -0.9971 0.0210 0.0729
vn -0.8635 0.1963 0.4646
vn -0.5871 -0.7305 0.3489
vn -0.7137 -0.6607 0.2325
vn -0.4201 -0.7537 0.5054
vn -0.5057 0.5643 0.6525
vn -0.4751 0.3711 0.7978
vn -0.8562 -0.4197 -0.3013
vn -0.7985 -0.5961 -0.0843
vn -0.6929 0.7199 0.0402
vn -0.6441 -0.6057 0.4671
vn -0.8092 0.5541 -0.1954
vn -0.8796 0.2507 -0.4042
vn -0.4462 -0.1931 0.8739
vn -0.5326 -0.4504 0.7166
vn -0.9107 -0.1101 -0.3981
vn -0.4361 0.0995 0.8944
vn -0.9411 -0.0113 -0.3378
vn -0.4821 0.0037 -0.8761
vn -0.4765 -0.1294 -0.8696
vn -0.8196 -0.0867 -0.5663
vn -0.4921 0.1233 -0.8617
vn -0.8310 0.0635 -0.5525
vn -0.5271 0.6303 -0.5700
vn -0.5326 0.7299 -0.4283
vn -0.4395 -0.4509 -0.7769
vn 0.0000 -0.1467 -0.9892
vn 0.0000 0.6609 -0.7505
vn -0.3840 0.6593 -0.6464
vn 0.0290 -0.0104 -0.9995
vn -0.6229 0.3813 -0.6830
vn -0.3526 -0.6180 -0.7026
vn -0.3430 -0.6894 -0.6380
vn 0.0000 -0.6809 -0.7324
vn 0.0000 0.1509 -0.9885
vn -0.2177 -0.6749 -0.7050
vn -0.8410 0.5393 0.0419
vn -0.9179 0.3538 0.1793
vn -0.3380 -0.4361 -0.8340
vn -0.4417 -0.6208 -0.6477
vn -0.5158 0.6959 -0.4996
vn -0.7523 -0.6407 -0.1537
vn -0.4085 0.5408 -0.7352
vn -0.3004 0.2333 -0.9248
vn -0.9431 -0.2119 0.2561
vn -0.8789 -0.4679 0.0927
vn -0.3125 -0.1321 -0.9407
vn -0.9577 0.0746 0.2780
vn 0.9408 -0.0113 -0.3387
vn 0.8194 -0.0867 -0.5666
vn 0.4765 -0.1294 -0.8696
vn 0.4821 0.0037 -0.8761
vn 0.0000 0.0092 -0.9999
vn 0.8309 0.0634 -0.5528
vn 0.4921 0.1233 -0.8617
vn 0.4395 -0.4509 -0.7769
vn 0.5326 0.7299 -0.4283
vn 0.5271 0.6303 -0.5700
vn 0.3840 0.6593 -0.6464
vn 0.6229 0.3813 -0.6830
vn -0.0290 -0.0104 -0.9995
vn 0.3526 -0.6180 -0.7026
vn 0.3430 -0.6894 -0.6380
vn 0.2177 -0.6749 -0.7050
vn 0.8410 0.5393 0.0419
vn 0.4417 -0.6208 -0.6477
vn 0.3380 -0.4361 -0.8340
vn 0.9179 0.3538 0.1793
vn 0.7523 -0.6407 -0.1537
vn 0.5158 0.6959 -0.4996
vn 0.4085 0.5408 -0.7352
vn 0.8789 -0.4679 0.0927
vn 0.9431 -0.2119 0.2561
vn 0.3004 0.2333 -0.9248
vn 0.3125 -0.1321 -0.9407
vn 0.9577 0.0746 0.2780
usemtl mask
s 1
f 24/1/1 6/2/2 2/3/3 22/4/4
f 36/5/5 7/6/6 4/7/7 31/8/8
f 26/9/9 8/10/10 5/11/11 23/12/12
f 23/12/12 5/11/11 6/2/2 24/1/1
f 21/13/13 1/14/14 8/10/10 26/9/9
f 30/15/15 3/16/16 25/17/17 39/18/18
f 15/19/19 16/20/20 9/21/21 12/22/22
f 2/3/3 6/2/2 11/23/23 10/24/24
f 17/25/25 18/26/26 14/27/27 13/28/28
f 19/29/29 20/30/30 12/22/22 9/21/21
f 8/10/10 1/14/14 16/20/20 15/19/19
f 10/24/24 11/23/23 18/26/26 17/25/25
f 13/28/28 14/27/27 20/30/30 19/29/29
f 3/16/16 21/13/13 26/9/9 25/17/17
f 7/6/6 24/1/1 22/4/4 4/7/7
f 54/31/31 59/32/32 37/33/33 55/34/34
f 27/35/35 7/6/6 36/5/5 58/36/36
f 39/18/18 25/17/17 27/35/35 58/36/36
f 56/37/37 59/32/32 54/31/31 57/38/38
f 55/34/34 53/39/39 29/40/40 35/41/41
f 36/5/5 31/8/8 33/42/42 37/33/33
f 57/38/38 54/43/31 34/44/43 38/45/44
f 54/43/31 55/34/34 35/41/41 34/44/43
f 52/46/45 57/38/38 38/45/44 28/47/46
f 30/15/15 39/18/18 56/37/37 32/48/47
f 46/49/48 43/50/49 40/51/50 47/52/51
f 29/40/40 41/53/52 42/54/53 35/41/41
f 48/55/54 44/56/55 45/57/56 49/58/57
f 50/59/58 40/51/50 43/50/49 51/60/59
f 38/45/44 46/49/48 47/52/51 28/47/46
f 41/53/52 48/55/54 49/58/57 42/54/53
f 44/56/55 50/59/58 51/60/59 45/57/56
f 32/48/47 56/37/37 57/38/38 52/46/45
f 37/33/33 33/42/42 53/39/39 55/34/34
f 82/61/60 86/62/61 66/63/62 83/64/63
f 59/32/32 58/36/36 36/5/5 37/33/33
f 39/18/18 58/36/36 59/32/32 56/37/37
f 84/65/64 86/62/61 82/61/60 85/66/65
f 83/64/63 81/67/66 61/68/67 65/69/68
f 95/70/69 90/71/70 63/72/71 66/63/62
f 85/66/65 82/73/60 64/74/72 67/75/73
f 82/73/60 83/64/63 65/69/68 64/74/72
f 80/76/74 85/66/65 67/75/73 60/77/75
f 89/78/76 98/79/77 84/65/64 62/80/78
f 74/81/79 71/82/80 68/83/81 75/84/82
f 61/68/67 69/85/83 70/86/84 65/69/68
f 76/87/85 72/88/86 73/89/87 77/90/88
f 78/91/89 68/83/81 71/82/80 79/92/90
f 67/75/73 74/81/79 75/84/82 60/77/75
f 69/85/83 76/87/85 77/90/88 70/86/84
f 72/88/86 78/91/89 79/92/90 73/89/87
f 62/80/78 84/65/64 85/66/65 80/76/74
f 66/63/62 63/72/71 81/67/66 83/64/63
f 113/93/91 114/94/92 96/95/93 118/96/94
f 86/62/61 117/97/95 95/70/69 66/63/62
f 98/79/77 117/97/95 86/62/61 84/65/64
f 116/98/96 113/93/91 118/96/94 115/99/97
f 114/94/92 94/100/98 88/101/99 112/102/100
f 95/70/69 96/95/93 92/103/101 90/71/70
f 116/98/96 97/104/102 93/105/103 113/106/91
f 113/106/91 93/105/103 94/100/98 114/94/92
f 111/107/104 87/108/105 97/104/102 116/98/96
f 89/78/76 91/109/106 115/99/97 98/79/77
f 105/110/107 106/111/108 99/112/109 102/113/110
f 88/101/99 94/100/98 101/114/111 100/115/112
f 107/116/113 108/117/114 104/118/115 103/119/116
f 109/120/117 110/121/118 102/113/110 99/112/109
f 97/104/102 87/108/105 106/111/108 105/110/107
f 100/115/112 101/114/111 108/117/114 107/116/113
f 103/119/116 104/118/115 110/121/118 109/120/117
f 91/109/106 111/107/104 116/98/96 115/99/97
f 96/95/93 114/94/92 112/102/100 92/103/101
f 118/96/94 96/95/93 95/70/69 117/97/95
f 98/79/77 115/99/97 118/96/94 117/97/95
f 1/14/14 21/13/13 80/76/74 60/77/75
f 31/8/8 4/7/7 63/72/71 90/71/70
f 3/16/16 30/15/15 89/78/76 62/80/78
f 4/7/7 22/4/4 81/67/66 63/72/71
f 5/11/11 8/10/10 67/75/73 64/74/72
f 8/10/10 15/19/19 74/81/79 67/75/73
f 9/21/21 16/20/20 75/84/82 68/83/81
f 2/3/3 10/24/24 69/85/83 61/68/67
f 11/23/23 6/2/2 65/69/68 70/86/84
f 10/24/24 17/25/25 76/87/85 69/85/83
f 14/27/27 18/26/26 77/90/88 73/89/87
f 16/20/20 1/14/14 60/77/75 75/84/82
f 13/28/28 19/29/29 78/91/89 72/88/86
f 15/19/19 12/22/22 71/82/80 74/81/79
f 12/22/22 20/30/30 79/92/90 71/82/80
f 17/25/25 13/28/28 72/88/86 76/87/85
f 18/26/26 11/23/23 70/86/84 77/90/88
f 19/29/29 9/21/21 68/83/81 78/91/89
f 20/30/30 14/27/27 73/89/87 79/92/90
f 6/2/2 5/11/11 64/74/72 65/69/68
f 21/13/13 3/16/16 62/80/78 80/76/74
f 22/4/4 2/3/3 61/68/67 81/67/66
f 23/12/12 24/1/1 83/64/63 82/73/60
f 26/9/9 23/12/12 82/73/60 85/66/65
f 52/46/45 28/47/46 87/108/105 111/107/104
f 33/42/42 31/8/8 90/71/70 92/103/101
f 30/15/15 32/48/47 91/109/106 89/78/76
f 53/39/39 33/42/42 92/103/101 112/102/100
f 38/45/44 34/44/43 93/105/103 97/104/102
f 46/49/48 38/45/44 97/104/102 105/110/107
f 47/52/51 40/51/50 99/112/109 106/111/108
f 41/53/52 29/40/40 88/101/99 100/115/112
f 35/41/41 42/54/53 101/114/111 94/100/98
f 48/55/54 41/53/52 100/115/112 107/116/113
f 49/58/57 45/57/56 104/118/115 108/117/114
f 28/47/46 47/52/51 106/111/108 87/108/105
f 50/59/58 44/56/55 103/119/116 109/120/117
f 43/50/49 46/49/48 105/110/107 102/113/110
f 51/60/59 43/50/49 102/113/110 110/121/118
f 44/56/55 48/55/54 107/116/113 103/119/116
f 42/54/53 49/58/57 108/117/114 101/114/111
f 40/51/50 50/59/58 109/120/117 99/112/109
f 45/57/56 51/60/59 110/121/118 104/118/115
f 34/44/43 35/41/41 94/100/98 93/105/103
f 32/48/47 52/46/45 111/107/104 91/109/106
f 29/40/40 53/39/39 112/102/100 88/101/99
f 55/34/34 54/43/31 113/106/91 114/94/92
f 26/9/9 23/122/12 27/35/35 25/17/17
f 54/43/31 57/38/38 116/98/96 113/106/91
f 23/122/12 24/1/1 7/6/6 27/35/35
